C:\Users\jackb\Documents\projects\Masters\adult_control\InputData/emg/ng10203_crop.c3d.mot
nRows=18
nColumns=13

name C:\Users\jackb\Documents\projects\Masters\adult_control\InputData/emg/ng10203_crop.c3d.mot
datacolumns 13
datarows 18
range 1.7900000000 1.7985000000
endheader
time	soleus_r	rect_fem_r	lat_gas_r	med_gas_r	vas_lat_r	vas_med_r	bifemlh_r	semimem_r	tib_ant_r	per_brev_r	ext_dig_r	ext_hal_r
        1.7900000000	        0.1330656225	        0.1956314575	        0.0813629861	        0.0782213265	        0.1028116445	        0.1424716341	        0.1324962675	        0.5910885289	        0.7189751216	        0.1025460195	        0.5492288636	        0.3033121385	
        1.7905000000	        0.1340918523	        0.1962450108	        0.0818865873	        0.0788186124	        0.1030477101	        0.1429166189	        0.1331889694	        0.5897374043	        0.7222686270	        0.1029386766	        0.5529986163	        0.3005431247	
        1.7910000000	        0.1350826696	        0.1968368072	        0.0824102343	        0.0794144644	        0.1032642889	        0.1433526027	        0.1339016183	        0.5884453146	        0.7252555071	        0.1033363633	        0.5566400745	        0.2978352468	
        1.7915000000	        0.1360373574	        0.1974056556	        0.0829330904	        0.0800081010	        0.1034607855	        0.1437787609	        0.1346321029	        0.5872105264	        0.7279321923	        0.1037383307	        0.5601472762	        0.2951877540	
        1.7920000000	        0.1369552760	        0.1979504221	        0.0834543084	        0.0805987411	        0.1036366085	        0.1441942787	        0.1353783034	        0.5860309795	        0.7302955492	        0.1041438198	        0.5635144355	        0.2925997364	
        1.7925000000	        0.1378358352	        0.1984700606	        0.0839730321	        0.0811856070	        0.1037911772	        0.1445983935	        0.1361381041	        0.5849044065	        0.7323428687	        0.1045520695	        0.5667359774	        0.2900701419	
        1.7930000000	        0.1386784706	        0.1989636391	        0.0844883955	        0.0817679387	        0.1039239244	        0.1449904374	        0.1369094048	        0.5838284380	        0.7340718536	        0.1049623211	        0.5698065536	        0.2875977975	
        1.7935000000	        0.1394826311	        0.1994303554	        0.0849995239	        0.0823450099	        0.1040342974	        0.1453698663	        0.1376901325	        0.5828006831	        0.7354806143	        0.1053738167	        0.5727210296	        0.2851814321	
        1.7940000000	        0.1402477801	        0.1998695338	        0.0855055355	        0.0829161304	        0.1041217565	        0.1457362696	        0.1384782509	        0.5818188207	        0.7365676668	        0.1057857953	        0.5754744655	        0.2828196925	
        1.7945000000	        0.1409734038	        0.2002805955	        0.0860055454	        0.0834806323	        0.1041857764	        0.1460893573	        0.1392717621	        0.5808807390	        0.7373319318	        0.1061974898	        0.5780621109	        0.2805111513	
        1.7950000000	        0.1416590208	        0.2006630103	        0.0864986668	        0.0840378500	        0.1042258504	        0.1464289335	        0.1400687015	        0.5799847376	        0.7377727339	        0.1066081255	        0.5804794169	        0.2782543109	
        1.7955000000	        0.1423041918	        0.2010162460	        0.0869840126	        0.0845871047	        0.1042414985	        0.1467548588	        0.1408671245	        0.5791297484	        0.7378898018	        0.1070169205	        0.5827220521	        0.2760476058	
        1.7960000000	        0.1429085318	        0.2013397365	        0.0874606969	        0.0851276958	        0.1042322750	        0.1470670069	        0.1416650924	        0.5783155028	        0.7376832694	        0.1074230865	        0.5847859142	        0.2738894026	
        1.7965000000	        0.1434717243	        0.2016328746	        0.0879278392	        0.0856589005	        0.1041977729	        0.1473652257	        0.1424606728	        0.5775425820	        0.7371536748	        0.1078258309	        0.5866671330	        0.2717779990	
        1.7970000000	        0.1439935246	        0.2018950182	        0.0883845722	        0.0861799793	        0.1041376230	        0.1476493400	        0.1432519634	        0.5768123352	        0.7363019608	        0.1082243587	        0.5883620726	        0.2697116297	
        1.7975000000	        0.1444737514	        0.2021254965	        0.0888300513	        0.0866901858	        0.1040514873	        0.1479192155	        0.1440371249	        0.5761266987	        0.7351294784	        0.1086178756	        0.5898673375	        0.2676884793	
        1.7980000000	        0.1449122941	        0.2023236157	        0.0892634639	        0.0871887756	        0.1039390539	        0.1481748354	        0.1448144025	        0.5754879827	        0.7336379897	        0.1090055945	        0.5911797804	        0.2657066972	
        1.7985000000	        0.1453091669	        0.2024886746	        0.0896840324	        0.0876750143	        0.1038000375	        0.1484163301	        0.1455821236	        0.5748986805	        0.7318296713	        0.1093867427	        0.5922965075	        0.2637644074	
